<svg xmlns="http://www.w3.org/2000/svg" width="30.797" height="30.792" viewBox="0 0 30.797 30.792">
  <g id="Group_8448" data-name="Group 8448" transform="translate(-1486.855 -754.547)">
    <path id="Path_23326" data-name="Path 23326" d="M281.992,96.252l0-.009,0-.008A15.242,15.242,0,0,0,266.751,81h0a15.244,15.244,0,0,0-.005,30.489h.015a15.285,15.285,0,0,0,15.234-15.234m-15.241,11.336a.817.817,0,0,0-.816.816v1.412a13.611,13.611,0,0,1-12.759-12.756h1.413a.816.816,0,1,0,0-1.632h-1.413a13.61,13.61,0,0,1,12.759-12.756v1.412a.815.815,0,0,0,1.631,0v-1.41a13.63,13.63,0,0,1,12.755,12.755h-1.409a.816.816,0,0,0,0,1.632h1.41a13.609,13.609,0,0,1-12.756,12.756V108.4a.817.817,0,0,0-.815-.816" transform="translate(1235.5 673.7)" fill="#aa893b" stroke="#aa893b" stroke-width="0.3"/>
    <path id="Path_23327" data-name="Path 23327" d="M269.131,90.161a.641.641,0,0,0-1.1-.444l-4.552,4.616L261.4,92.279a.678.678,0,0,0-.456-.184.64.64,0,0,0-.443,1.1l2.537,2.5a.64.64,0,0,0,.449.184v-.151h.005v.151a.64.64,0,0,0,.455-.192l5-5.07a.628.628,0,0,0,.185-.455" transform="translate(1239.304 676.868)" fill="#aa893b" stroke="#aa893b" stroke-width="0.3"/>
  </g>
</svg>
