<svg xmlns="http://www.w3.org/2000/svg" width="26.438" height="17.756" viewBox="0 0 26.438 17.756">
  <path id="Path_23324" data-name="Path 23324" d="M44.914,4.882a1.531,1.531,0,0,0-1.2-.584H20.336a1.531,1.531,0,0,0-1.2.584l-.023.029-.026.037a1.522,1.522,0,0,0-.28.881V20.522a1.527,1.527,0,0,0,.577,1.194l.038.03.037.028a1.529,1.529,0,0,0,.877.279H43.714a1.524,1.524,0,0,0,.868-.273l.04-.028.028-.023a1.531,1.531,0,0,0,.594-1.207V5.828a1.533,1.533,0,0,0-.283-.884m-12.275,8.2a1.1,1.1,0,0,1-.653.2h-.025a1.213,1.213,0,0,1-.639-.19L21.418,5.688H42.627Zm-6.13.781a.7.7,0,0,0-.1-.913.672.672,0,0,0-.5-.184.708.708,0,0,0-.5.243L20.19,19.59V6.511l10.353,7.764a2.6,2.6,0,0,0,2.96-.009L43.844,6.51V19.586l-5.313-6.567a.688.688,0,0,0-.483-.222.68.68,0,0,0-.5.184.69.69,0,0,0-.055.963l5.44,6.715H21.117Z" transform="translate(-18.807 -4.298)" fill="#aa893b"/>
</svg>
