<svg xmlns="http://www.w3.org/2000/svg" width="47" height="47" viewBox="0 0 47 47">
  <g id="Group_8360" data-name="Group 8360" transform="translate(-1657.195 -794)">
    <circle id="Ellipse_1793" data-name="Ellipse 1793" cx="23.5" cy="23.5" r="23.5" transform="translate(1657.195 794)" fill="#fff"/>
    <g id="Group_8358" data-name="Group 8358" transform="translate(1674.391 811)">
      <path id="Path_23028" data-name="Path 23028" d="M180.519,536.687h-2.872v-6.215c0-.727-.207-1.237-1.1-1.237a1.723,1.723,0,0,0-1.77,1.237v6.215H171.9V526.636h2.872v.961a4.8,4.8,0,0,1,2.872-.96c.931,0,2.872.558,2.872,3.923Z" transform="translate(-167.595 -523.326)" fill="#be901c" fill-rule="evenodd"/>
      <path id="Path_23029" data-name="Path 23029" d="M157.868,517h0a1.347,1.347,0,1,1,1.347-1.348A1.347,1.347,0,0,1,157.868,517Z" transform="translate(-156.343 -514.303)" fill="#be901c" fill-rule="evenodd"/>
      <path id="Path_23030" data-name="Path 23030" d="M158.725,536.687h-2.872V526.636h2.872Z" transform="translate(-155.853 -523.326)" fill="#be901c" fill-rule="evenodd"/>
    </g>
  </g>
</svg>
