<svg xmlns="http://www.w3.org/2000/svg" width="20.86" height="30.493" viewBox="0 0 20.86 30.493">
  <g id="Group_8559" data-name="Group 8559" transform="translate(-1718 -1572)">
    <path id="Path_23328" data-name="Path 23328" d="M10.431,85A10.46,10.46,0,0,0,0,95.429c0,2.3,1.338,5.767,4.21,10.915,1.9,3.4,3.83,6.365,3.973,6.57l1.4,2.121a1.017,1.017,0,0,0,.85.456,1.018,1.018,0,0,0,.845-.456l1.4-2.121c.019-.025,1.98-3.007,3.974-6.57,2.872-5.145,4.21-8.615,4.21-10.915A10.462,10.462,0,0,0,10.431,85m8.415,10.431c-.017,1.9-1.352,5.237-3.969,9.926-.778,1.4-2.069,3.619-3.793,6.294l-.644.981-.566-.859c-.479-.73-2.17-3.356-3.871-6.414-2.623-4.7-3.952-8.046-3.952-9.926a8.407,8.407,0,0,1,8.391-8.4h.005a8.41,8.41,0,0,1,8.4,8.4" transform="translate(1718 1487.002)" fill="#aa893b"/>
    <path id="Path_23329" data-name="Path 23329" d="M2.676,93.534a5.9,5.9,0,1,0,5.9-5.9,5.9,5.9,0,0,0-5.9,5.9m9.76,0a3.863,3.863,0,1,1-3.863-3.861,3.872,3.872,0,0,1,3.863,3.861" transform="translate(1719.857 1488.834)" fill="#aa893b"/>
  </g>
</svg>
