<svg xmlns="http://www.w3.org/2000/svg" width="29.665" height="27.755" viewBox="0 0 29.665 27.755">
  <path id="Path_29" data-name="Path 29" d="M-319.47,119.027c-1.6-.89-2.968-1.783-3.964-2.434-.761-.5-1.31-.855-1.713-1.058a1.973,1.973,0,0,0-2.3.163.859.859,0,0,0-.109.132c-1.17,1.755-2.7,3.434-3.145,3.524a20.909,20.909,0,0,1-5.339-3.457c-2.454-2.045-4-4-4.225-5.337,1.574-1.621,2.141-2.64,2.141-3.8,0-1.2-2.789-6.188-3.294-6.693s-1.647-.584-3.389-.237a.877.877,0,0,0-.444.237c-.211.211-5.149,5.245-2.8,11.347,2.576,6.7,9.187,14.48,17.616,15.744a18.273,18.273,0,0,0,2.7.215c4.959,0,7.885-2.495,8.709-7.444A.865.865,0,0,0-319.47,119.027Zm-10.714,6.413c-8.913-1.337-14.528-10.167-16.252-14.65-1.711-4.446,1.444-8.41,2.236-9.307a6.552,6.552,0,0,1,1.606-.111,31.182,31.182,0,0,1,2.729,5.388c0,.456-.148,1.091-1.917,2.86a.865.865,0,0,0-.255.614c0,4.547,9.591,10.855,11.289,10.855,1.477,0,3.4-2.483,4.5-4.1a.824.824,0,0,1,.322.1c.312.157.854.511,1.54.959.9.591,2.107,1.376,3.526,2.19C-321.5,123.337-323.3,126.473-330.183,125.44Z" transform="translate(348.688 -99.617)" fill="#aa893b"/>
</svg>
