<svg xmlns="http://www.w3.org/2000/svg" width="47" height="47" viewBox="0 0 47 47">
  <g id="Group_8359" data-name="Group 8359" transform="translate(-1593 -794)">
    <circle id="Ellipse_1794" data-name="Ellipse 1794" cx="23.5" cy="23.5" r="23.5" transform="translate(1593 794)" fill="#fff"/>
    <path id="Path_25528" data-name="Path 25528" d="M374.656,418.253a3.884,3.884,0,0,0,1.72-2.235,9.124,9.124,0,0,1-2.52.945A3.7,3.7,0,0,0,371,415.712a3.84,3.84,0,0,0-2.834,1.184,3.963,3.963,0,0,0-1.153,2.86,2.969,2.969,0,0,0,.125.9,10.534,10.534,0,0,1-8.178-4.214,4.138,4.138,0,0,0-.547,2.027,3.94,3.94,0,0,0,1.764,3.392,4.3,4.3,0,0,1-1.764-.515,4.093,4.093,0,0,0,.879,2.622,3.868,3.868,0,0,0,2.268,1.418,4.128,4.128,0,0,1-1.05.13,1.948,1.948,0,0,1-.712-.091,3.948,3.948,0,0,0,3.691,2.837,7.6,7.6,0,0,1-4.908,1.717,6.156,6.156,0,0,1-.967-.043,10.729,10.729,0,0,0,6.085,1.812,10.622,10.622,0,0,0,6.084-1.786,11.093,11.093,0,0,0,3.9-4.364,12.078,12.078,0,0,0,1.256-5.373v-.515a8.457,8.457,0,0,0,1.973-2.109A8.6,8.6,0,0,1,374.656,418.253Z" transform="translate(1249.139 393.288)" fill="#be901c" fill-rule="evenodd"/>
  </g>
</svg>
