<svg xmlns="http://www.w3.org/2000/svg" xmlns:xlink="http://www.w3.org/1999/xlink" width="750" height="226" viewBox="0 0 750 226">
  <defs>
    <clipPath id="clip-path">
      <rect id="Rectangle_4251" data-name="Rectangle 4251" width="750" height="226" transform="translate(1307 5222.58)" fill="#fff" stroke="#707070" stroke-width="1"/>
    </clipPath>
  </defs>
  <g id="Mask_Group_22" data-name="Mask Group 22" transform="translate(-1307 -5222.58)" clip-path="url(#clip-path)">
    <g id="Path_25493" data-name="Path 25493" transform="matrix(0.998, -0.07, 0.07, 0.998, 1373.033, 4327.869)" fill="none">
      <path d="M512.776-11.029c279.171-14.543,497.889,227.546,488.52,540.722s-243.277,578.845-522.449,593.388S-19.041,895.535-9.672,582.359,233.605,3.514,512.776-11.029Z" stroke="none"/>
      <path d="M 536.6029052734375 -10.6512451171875 C 528.7386474609375 -10.6512451171875 520.73974609375 -10.4422607421875 512.828369140625 -10.030029296875 C 495.623046875 -9.1337890625 478.2424926757812 -7.2470703125 461.169189453125 -4.4222412109375 C 444.3424682617188 -1.6380615234375 427.4053344726562 2.1246337890625 410.8283081054688 6.76171875 C 394.4650268554688 11.339111328125 378.059326171875 16.8780517578125 362.06689453125 23.2249755859375 C 346.2526245117188 29.5010986328125 330.46630859375 36.7164306640625 315.1466064453125 44.670654296875 C 299.9676513671875 52.5516357421875 284.8890380859375 61.343505859375 270.3297729492188 70.802001953125 C 255.8731689453125 80.1937255859375 241.5906372070312 90.46221923828125 227.87890625 101.3220825195312 C 214.2326049804688 112.1300659179688 200.8345947265625 123.7750854492188 188.056884765625 135.9334716796875 C 175.3097534179688 148.0628051757812 162.884765625 160.9841918945312 151.1267700195312 174.338623046875 C 139.3683471679688 187.693603515625 128.0047607421875 201.7911987304688 117.3515014648438 216.2396240234375 C 106.6719360351562 230.7239379882812 96.45819091796875 245.8973388671875 86.993896484375 261.3385009765625 C 77.4837646484375 276.8547973632812 68.50836181640625 293.00390625 60.31707763671875 309.3370361328125 C 52.06707763671875 325.7872314453125 44.418212890625 342.8114624023438 37.58319091796875 359.9368896484375 C 30.684326171875 377.2222290039062 24.45062255859375 395.0213623046875 19.0550537109375 412.8402099609375 C 13.59832763671875 430.8606567382812 8.867919921875 449.33447265625 4.99493408203125 467.7484741210938 C 1.071044921875 486.4039306640625 -2.06793212890625 505.4520874023438 -4.3350830078125 524.3640747070312 C -6.635498046875 543.5536499023438 -8.094970703125 563.0760498046875 -8.67266845703125 582.388916015625 C -9.27520751953125 602.531494140625 -8.92926025390625 622.788330078125 -7.64434814453125 642.5970458984375 C -6.3787841796875 662.1073608398438 -4.1722412109375 681.6500244140625 -1.0858154296875 700.6824951171875 C 1.9593505859375 719.460205078125 5.9326171875 738.1851806640625 10.72393798828125 756.3375244140625 C 15.4603271484375 774.2816162109375 21.10662841796875 792.08544921875 27.50592041015625 809.2542114257812 C 33.84564208984375 826.26318359375 41.0709228515625 843.042236328125 48.9810791015625 859.1250610351562 C 56.8360595703125 875.0960693359375 65.5465087890625 890.7467651367188 74.870361328125 905.642333984375 C 84.15264892578125 920.4716186523438 94.25433349609375 934.8905029296875 104.894775390625 948.4983520507812 C 115.5157470703125 962.0813598632812 126.9149169921875 975.164794921875 138.7754516601562 987.3856201171875 C 149.0060424804688 997.9267578125 159.8038940429688 1008.056030273438 170.8690795898438 1017.4921875 C 181.96435546875 1026.953735351562 193.5967407226562 1035.947387695312 205.4434814453125 1044.22314453125 C 217.34521484375 1052.537353515625 229.7525024414062 1060.3291015625 242.3204956054688 1067.381958007812 C 254.97021484375 1074.480590820312 268.0922241210938 1081.00439453125 281.32177734375 1086.771606445312 C 294.660888671875 1092.586791992188 308.437744140625 1097.776245117188 322.2698974609375 1102.19580078125 C 336.2390747070312 1106.659057617188 350.611328125 1110.448120117188 364.9873657226562 1113.457153320312 C 379.52734375 1116.500732421875 394.4351806640625 1118.82275390625 409.2969360351562 1120.35888671875 C 424.3482055664062 1121.914672851562 439.7323608398438 1122.703491210938 455.0219116210938 1122.703491210938 C 462.8859252929688 1122.703491210938 470.8846435546875 1122.494506835938 478.7960815429688 1122.082397460938 C 496.0013427734375 1121.18603515625 513.3818969726562 1119.29931640625 530.4552001953125 1116.474487304688 C 547.2819213867188 1113.690307617188 564.2190551757812 1109.927490234375 580.7960205078125 1105.29052734375 C 597.1593017578125 1100.713256835938 613.5650634765625 1095.174194335938 629.5574951171875 1088.8271484375 C 645.3717651367188 1082.551025390625 661.1580810546875 1075.335693359375 676.4776611328125 1067.381469726562 C 691.65673828125 1059.50048828125 706.7353515625 1050.708618164062 721.2946166992188 1041.25 C 735.751220703125 1031.8583984375 750.0337524414062 1021.589904785156 763.7454833984375 1010.730041503906 C 777.3916015625 999.9220581054688 790.789794921875 988.2770385742188 803.5675048828125 976.11865234375 C 816.314453125 963.9893798828125 828.7396240234375 951.0679321289062 840.4976196289062 937.7135009765625 C 852.2559204101562 924.3585205078125 863.61962890625 910.2609252929688 874.2727661132812 895.8125 C 884.9525146484375 881.3281860351562 895.1661987304688 866.15478515625 904.63037109375 850.713623046875 C 914.140625 835.1973876953125 923.1160278320312 819.04833984375 931.3073120117188 802.7152099609375 C 939.5573120117188 786.264892578125 947.2060546875 769.2406005859375 954.0410766601562 752.115234375 C 960.9398803710938 734.830078125 967.1736450195312 717.03076171875 972.5692138671875 699.2120361328125 C 978.02587890625 681.191650390625 982.75634765625 662.7177734375 986.6293334960938 644.3035888671875 C 990.55322265625 625.648193359375 993.6921997070312 606.60009765625 995.9593505859375 587.6880493164062 C 998.259765625 568.4984741210938 999.7191772460938 548.97607421875 1000.296936035156 529.6632080078125 C 1000.899475097656 509.5206298828125 1000.553649902344 489.2637939453125 999.2686157226562 469.455078125 C 998.0030517578125 449.9447631835938 995.7965087890625 430.4020385742188 992.7100219726562 411.36962890625 C 989.6650390625 392.5919189453125 985.691650390625 373.866943359375 980.9003295898438 355.7146606445312 C 976.1640625 337.7703247070312 970.5177612304688 319.9666137695312 964.1184692382812 302.7979125976562 C 957.7787475585938 285.7889404296875 950.553466796875 269.0099487304688 942.643310546875 252.9269409179688 C 934.788330078125 236.9559326171875 926.077880859375 221.3053588867188 916.7542114257812 206.4097900390625 C 907.471923828125 191.5805053710938 897.3701782226562 177.16162109375 886.729736328125 163.5537719726562 C 876.1087646484375 149.9707641601562 864.7095947265625 136.88720703125 852.8490600585938 124.66650390625 C 842.6184692382812 114.1253662109375 831.82080078125 103.9960327148438 820.7554931640625 94.56005859375 C 809.6603393554688 85.098388671875 798.0277709960938 76.104736328125 786.1810302734375 67.8291015625 C 774.2793579101562 59.5147705078125 761.8721923828125 51.7230224609375 749.30419921875 44.6702880859375 C 736.6544799804688 37.5716552734375 723.532470703125 31.0479736328125 710.3029174804688 25.280517578125 C 696.9638671875 19.4654541015625 683.1868896484375 14.2760009765625 669.3549194335938 9.8564453125 C 655.3856201171875 5.3931884765625 641.0134887695312 1.604248046875 626.637451171875 -1.4049072265625 C 612.0974731445312 -4.448486328125 597.1896362304688 -6.7705078125 582.327880859375 -8.306640625 C 567.276611328125 -9.8624267578125 551.8924560546875 -10.6512451171875 536.6029052734375 -10.6512451171875 M 536.6029052734375 -11.6512451171875 C 804.2874755859375 -11.6512451171875 1010.397399902344 225.482177734375 1001.296508789062 529.6930541992188 C 991.927490234375 842.8690185546875 758.0193481445312 1108.53759765625 478.8480224609375 1123.0810546875 C 470.8566284179688 1123.497314453125 462.9102783203125 1123.703491210938 455.0219116210938 1123.703491210938 C 187.33740234375 1123.703491210938 -18.7730712890625 886.5699462890625 -9.6722412109375 582.3590698242188 C -0.30322265625 269.1832275390625 233.6050415039062 3.514404296875 512.7763671875 -11.02880859375 C 520.7677612304688 -11.445068359375 528.7145385742188 -11.6512451171875 536.6029052734375 -11.6512451171875 Z" stroke="none" fill="#aa893b"/>
    </g>
  </g>
</svg>
