<svg xmlns="http://www.w3.org/2000/svg" xmlns:xlink="http://www.w3.org/1999/xlink" width="87.749" height="102.44" viewBox="0 0 87.749 102.44">
  <defs>
    <linearGradient id="linear-gradient" x1="0.869" y1="0.203" x2="0.174" y2="0.911" gradientUnits="objectBoundingBox">
      <stop offset="0" stop-color="#dbc558"/>
      <stop offset="1" stop-color="#8b6b2a"/>
    </linearGradient>
  </defs>
  <g id="Group_7961" data-name="Group 7961" transform="translate(-1687.751 -59.78)">
    <path id="Path_288" data-name="Path 288" d="M-495.137,128.824c-33.667,0-37.628,22.146-37.628,33.67,0,0-.023-.035-.023.012,0,11.522,3.983,33.656,37.651,33.656s37.628-22.146,37.628-33.667S-461.472,128.824-495.137,128.824Z" transform="translate(2226.666 -69.044)" fill="url(#linear-gradient)"/>
    <g id="Group_4210" data-name="Group 4210" transform="translate(1713.103 70.486)">
      <path id="Path_195" data-name="Path 195" d="M-253.092,122.061c-.48-1.455,1.412-2.374,2.035-1.118-.414.634-1.486.611-2.035,1.118" transform="translate(289.908 -108.714)" fill="#fff"/>
      <path id="Path_196" data-name="Path 196" d="M-252.681,146.534c-1.34.051-2.289-.1-3.465,0-.168-.17-.08-.6-.1-.912,1.485-.055,3.513-.12,3.569.912" transform="translate(290.211 -111.193)" fill="#fff"/>
      <path id="Path_197" data-name="Path 197" d="M-254.126,121.568c.5,1.046.2,2.408.2,3.569,0,.657.461,1.693-.2,2.137-.441-1.566-.129-4.072-.2-5.707Z" transform="translate(290.026 -108.834)" fill="#fff"/>
      <path id="Path_198" data-name="Path 198" d="M-254.4,144.081h-2.953q-.4-2.758-.814-5.5c.414-.642,1.213-.893,1.728-1.432a68.794,68.794,0,0,1,2.04,6.93" transform="translate(290.398 -110.364)" fill="#fff"/>
      <path id="Path_199" data-name="Path 199" d="M-255.37,121.911a13.962,13.962,0,0,1,.1,4.682c-.558-.3-.3-1.27-.3-2.034v-2.346c-.051-.225.195-.142.206-.3" transform="translate(290.15 -108.867)" fill="#fff"/>
      <path id="Path_200" data-name="Path 200" d="M-257.058,122.361v3.364c-.938.324-2.7-.145-3.357.2-.233.774.728.358,1.023.609.513,1.553.833,3.311,1.423,4.79-2.155,1.55-4.185,3.212-6.521,4.583.289-1.166.534-2.5.813-3.868.4-1.9.429-3.974,1.531-4.891a9.443,9.443,0,0,1-.918-1.731c-.367-1.064-.916-2.1-.1-2.648a22.556,22.556,0,0,0,6.105-.407" transform="translate(291.02 -108.911)" fill="#fff"/>
      <path id="Path_201" data-name="Path 201" d="M-257.4,135.345a.647.647,0,0,0,.1.514,94.924,94.924,0,0,1-8.655,6.109c-.042-1.007,1.066-1.465,1.726-1.933,2.146-1.528,4.523-3.088,6.618-4.69Z" transform="translate(291.164 -110.186)" fill="#fff"/>
      <path id="Path_202" data-name="Path 202" d="M-258.036,133.425c.409-.069.175.507.408.608-2.312,1.977-4.991,3.568-7.437,5.4-.267-.236.168-.641.1-1.02,2.353-1.616,4.627-3.313,6.93-4.988" transform="translate(291.085 -109.997)" fill="#fff"/>
      <path id="Path_203" data-name="Path 203" d="M-265.956,121.542c2.414-.475,5.7-.069,8.45-.206-1.738,1.06-6,.637-8.35.416.018-.124-.018-.185-.1-.21" transform="translate(291.163 -108.808)" fill="#fff"/>
      <path id="Path_204" data-name="Path 204" d="M-259.41,139.412a22.1,22.1,0,0,1,.713,4.891c-.6-1.213-.653-3.481-.713-4.891" transform="translate(290.521 -110.586)" fill="#fff"/>
      <path id="Path_205" data-name="Path 205" d="M-259.477,118.1c-.072.309.17.3.106.611-1.906.435-2.1-1.423-1.43-2.444a1.264,1.264,0,0,1,1.119,1.222c-.328-.063-.475.069-.709.1-.028.5.569.381.914.512" transform="translate(290.692 -108.313)" fill="#fff"/>
      <path id="Path_206" data-name="Path 206" d="M-259.914,119.6v.914c-.41,0-.34-.475-.611-.611-.5-.041-.06.308-.308.406-.462-.11-.393-.758-.611-1.115.381-.139.923.437,1.529.406" transform="translate(290.72 -108.599)" fill="#fff"/>
      <path id="Path_207" data-name="Path 207" d="M-260.921,139.975a18.836,18.836,0,0,1,.61,4.384,27.847,27.847,0,0,1-6.208-.1c.441-1.14,1.715-1.507,2.647-2.138a31.922,31.922,0,0,1,2.745-1.936c.028-.109.206-.067.206-.2" transform="translate(291.219 -110.641)" fill="#fff"/>
      <path id="Path_208" data-name="Path 208" d="M-261.859,116.378c.3.283-.216.837-.3,1.527-.1.8.321,1.823-.1,2.338-.683-.29-.151-2.183-.206-2.952-1.079.418-.276,2.267-.914,2.952-.561-1.544-.013-3.731,1.523-3.865" transform="translate(290.932 -108.324)" fill="#fff"/>
      <path id="Path_209" data-name="Path 209" d="M-263.2,146.547a25.2,25.2,0,0,1-3.666.107c-.191-.222.135-.545.1-.918,1.479-.018,3.015-.093,3.569.811" transform="translate(291.259 -111.206)" fill="#fff"/>
      <path id="Path_210" data-name="Path 210" d="M-265.4,119.762c.285.225.612.407.612.916-.363-.114-.712-.657-.612-.916" transform="translate(291.11 -108.656)" fill="#fff"/>
      <path id="Path_211" data-name="Path 211" d="M-266.1,122.473c.312.027.394-.326.611-.1-1.593,1.451-1.392-1.854-2.953-1.731,1.41-1.087,1.557,1.318,2.343,1.836" transform="translate(291.408 -108.715)" fill="#fff"/>
      <path id="Path_212" data-name="Path 212" d="M-266.718,131.393c.652-.171,1.3.2,1.116,1.116-.4,2.09-3.2-.581-1.116-1.116" transform="translate(291.313 -109.794)" fill="#fff"/>
      <path id="Path_213" data-name="Path 213" d="M-266.982,129.183c.775,2.715-3.821.507-1.425-.514a.982.982,0,0,1,1.425.514" transform="translate(291.473 -109.519)" fill="#fff"/>
      <path id="Path_214" data-name="Path 214" d="M-267.389,134.2c1.045,1.561-1.454,2.423-1.73,1.013-.183-.909.7-1.614,1.73-1.013" transform="translate(291.476 -110.052)" fill="#fff"/>
      <path id="Path_215" data-name="Path 215" d="M-269.006,121.341c.54.041,1.36-.206,1.221.515h-1.121c.087-.29-.14-.27-.1-.515" transform="translate(291.463 -108.81)" fill="#fff"/>
      <path id="Path_216" data-name="Path 216" d="M-269.115,115.135c1.152,1.9-1.808,3.693-3.564,2.443-.289.693.08,2.053-.2,2.748h-.614c-.172-.282.122-.55-.1-.913a1.62,1.62,0,0,0-.712,2.546c-2.016-.976.456-2.411.611-3.669-.518-.046-.754.657-1.224.817a1.844,1.844,0,0,1-2.238-2.651c-.432,3.9,4.492,2.685,3.357-1.015h1.222c-.636,3.549,3.976,2.248,3.466-.306" transform="translate(292.285 -108.202)" fill="#fff"/>
      <path id="Path_217" data-name="Path 217" d="M-270.086,131.381a.915.915,0,0,1,1.428.914c-.124,2.153-3.271-.038-1.428-.914" transform="translate(291.626 -109.782)" fill="#fff"/>
      <path id="Path_218" data-name="Path 218" d="M-269.308,122.466h.611c-.136.2-.457.222-.713.3-.972-.318-.556-2.021-1.63-2.235-.005,0-.012-.011-.021-.011.786-.9,1.5,1.04,1.754,1.945" transform="translate(291.665 -108.708)" fill="#fff"/>
      <path id="Path_219" data-name="Path 219" d="M-268.869,126.177A1.091,1.091,0,0,1-270.6,127.5a1.118,1.118,0,0,1,1.729-1.323" transform="translate(291.63 -109.264)" fill="#fff"/>
      <path id="Path_220" data-name="Path 220" d="M-269.173,136.583a1.114,1.114,0,0,1-.51,2.037c-1.257,0-1.645-2.484.51-2.037" transform="translate(291.63 -110.303)" fill="#fff"/>
      <path id="Path_221" data-name="Path 221" d="M-270.255,129.489c.12,2.387-3.663.051-1.425-.818a.971.971,0,0,1,1.425.818" transform="translate(291.795 -109.522)" fill="#fff"/>
      <path id="Path_222" data-name="Path 222" d="M-270.741,125.318c-3.463-.114.528-3.569.509-.917-.005.419-.277.518-.509.917" transform="translate(291.772 -109.014)" fill="#fff"/>
      <path id="Path_223" data-name="Path 223" d="M-270.358,139.8a1.145,1.145,0,0,1-1.734,1.323,1.1,1.1,0,1,1,1.734-1.323" transform="translate(291.798 -110.57)" fill="#fff"/>
      <path id="Path_224" data-name="Path 224" d="M-271.374,133.992c1.343-.1,1.042,1.991-.1,1.939a.972.972,0,0,1,.1-1.939" transform="translate(291.792 -110.053)" fill="#fff"/>
      <path id="Path_225" data-name="Path 225" d="M-271.151,120.656c0-.06.012-.11.081-.108a1.124,1.124,0,0,0-.081.108" transform="translate(291.673 -108.733)" fill="#fff"/>
      <path id="Path_226" data-name="Path 226" d="M-271,121.853a13.853,13.853,0,0,1-2.748.1v-.613c.947.147,2.558-.381,2.748.513" transform="translate(291.929 -108.809)" fill="#fff"/>
      <path id="Path_227" data-name="Path 227" d="M-271.947,143.045c.135,1.719-2.522,1.244-2.034-.309a.966.966,0,0,1,.608-.509.993.993,0,0,1,1.427.818" transform="translate(291.957 -110.854)" fill="#fff"/>
      <path id="Path_228" data-name="Path 228" d="M-273.976,137.6c-.131-1.435,2.314-1.69,1.934.408a1.055,1.055,0,0,1-1.934-.408" transform="translate(291.951 -110.297)" fill="#fff"/>
      <path id="Path_229" data-name="Path 229" d="M-272.047,126.78c.04.777-.787,1.392-1.73.81-1.11-1.777,1.654-2.39,1.73-.81" transform="translate(291.957 -109.256)" fill="#fff"/>
      <path id="Path_230" data-name="Path 230" d="M-272.154,131.474a1.055,1.055,0,1,1-1.934.706,1.127,1.127,0,0,1,1.934-.706" transform="translate(291.962 -109.775)" fill="#fff"/>
      <path id="Path_231" data-name="Path 231" d="M-273.075,122.587h.515a7.98,7.98,0,0,1-.207,1.429c-.2.473-.021-.018-.1-.409a9.789,9.789,0,0,1-.21-1.02" transform="translate(291.862 -108.934)" fill="#fff"/>
      <path id="Path_232" data-name="Path 232" d="M-273.87,129.278c.431,2.715-3.85.088-1.327-.713.881-.275,1.248.2,1.327.713" transform="translate(292.149 -109.513)" fill="#fff"/>
      <path id="Path_233" data-name="Path 233" d="M-275.784,135.1c-.3-2,3.136-1.25,1.729.611-.812.444-1.624.1-1.729-.611" transform="translate(292.13 -110.046)" fill="#fff"/>
      <path id="Path_234" data-name="Path 234" d="M-275.182,139.293c1.474-.461,1.722,1.5.813,1.932-1.09.529-2.355-1.453-.813-1.932" transform="translate(292.14 -110.567)" fill="#fff"/>
      <path id="Path_235" data-name="Path 235" d="M-275.027,112.673c-.667.522-1.471,2.543.308,2.451a8.556,8.556,0,0,1-1.225,1.219c-.566-.113-1.088-.269-1.017-1.018.323-.161.451-.033.812,0,.116-.152-.306-.642-.812-.51a3.646,3.646,0,0,1,.915-1.429c-.416-.106-1.065.435-1.221.921a4.478,4.478,0,0,1-.307-1.836c-.422.363-.32,1.241-.4,1.935-.37-.41-.672-.891-1.327-1.02.051.329.793.843.918,1.429a.876.876,0,0,0-.815.51c.088.213.711-.2.914.1-.225,1.576-1.86.583-2.237-.2.229-.211.674-.207.916-.408.13-1.085-.443-1.459-.714-2.143,1.605.488,2.18-.749,2.549-1.83.507.574.613,1.558,1.318,1.933.584.075.846-.172,1.428-.1" transform="translate(292.594 -107.78)" fill="#fff"/>
      <path id="Path_236" data-name="Path 236" d="M-275.284,123.481c1.577-.6,1.621,1.739.607,1.931-1.112.221-1.766-1.486-.607-1.931" transform="translate(292.139 -109.012)" fill="#fff"/>
      <path id="Path_237" data-name="Path 237" d="M-275.223,137.388a1.13,1.13,0,0,1-2.04.611c-.554-1.823,1.989-2.141,2.04-.611" transform="translate(292.281 -110.291)" fill="#fff"/>
      <path id="Path_238" data-name="Path 238" d="M-275.738,121.566c.343-.1.161.321.206.511h-.813c.1-.271.472-.272.608-.511" transform="translate(292.184 -108.832)" fill="#fff"/>
      <path id="Path_239" data-name="Path 239" d="M-276.644,131.272c1.71-.636,1.774,1.912.408,1.933a1,1,0,0,1-.408-1.933" transform="translate(292.277 -109.776)" fill="#fff"/>
      <path id="Path_240" data-name="Path 240" d="M-276.778,125.975c1.531-.273,1.236,2.046,0,1.932a.978.978,0,0,1,0-1.932" transform="translate(292.307 -109.264)" fill="#fff"/>
      <path id="Path_241" data-name="Path 241" d="M-277.1,134.195c.813,1.226-1.038,2.412-1.731,1.221-.195-1.257.926-1.862,1.731-1.221" transform="translate(292.43 -110.048)" fill="#fff"/>
      <path id="Path_242" data-name="Path 242" d="M-277.238,128.976c.423,1.895-1.846,1.746-1.933.606a1.064,1.064,0,0,1,1.933-.606" transform="translate(292.461 -109.517)" fill="#fff"/>
      <path id="Path_243" data-name="Path 243" d="M-277.475,120.1c.3.235.632.452.917.709a3.049,3.049,0,0,1-1.933,1.016v-.916a3.389,3.389,0,0,0,1.015-.809" transform="translate(292.394 -108.69)" fill="#fff"/>
      <path id="Path_244" data-name="Path 244" d="M-277.764,146.335c-.609.677-2.456.126-3.563.3.082-.424-.159-.527-.1-.918a4.646,4.646,0,0,1,3.666.614" transform="translate(292.684 -111.192)" fill="#fff"/>
      <path id="Path_245" data-name="Path 245" d="M-279.706,131.276c2.12-.564.943,2.935-.512,1.729a1.05,1.05,0,0,1,.512-1.729" transform="translate(292.592 -109.781)" fill="#fff"/>
      <path id="Path_246" data-name="Path 246" d="M-279.355,121.344h-.307c0,.132-.179.095-.2.2.058.906-.078,1.8-.1,2.751-.021.89-.236,2.009.3,2.648.555-.541.307-1.658.307-2.648Z" transform="translate(292.545 -108.812)" fill="#fff"/>
      <path id="Path_247" data-name="Path 247" d="M-281.947,137.382a49.123,49.123,0,0,1,2.14,6.723c-.912,0-1.661.166-2.65.1-.468-1.772-.684-3.8-1.121-5.6.472-.481,1.121-.786,1.63-1.221" transform="translate(292.894 -110.386)" fill="#fff"/>
      <path id="Path_248" data-name="Path 248" d="M-280.792,121.8a13.7,13.7,0,0,1-.1,4.579c-.3-1.053-.441-3.694.1-4.579" transform="translate(292.656 -108.856)" fill="#fff"/>
      <path id="Path_249" data-name="Path 249" d="M-282.789,122.361a23.315,23.315,0,0,1,.1,3.463c-.936.455-3.223-.437-3.669.505-.027.544.807.221,1.226.308.528,1.678,1.014,3.4,1.527,5.091-2.146,1.556-4.234,3.167-6.516,4.583.914-2.534.51-5.776,1.526-8.044.108-.246.893-.83.912-1.12.021-.179-.649-1.332-.812-1.836a7.492,7.492,0,0,1-.51-2.031c.409-1.139,2.942-.213,4.891-.512.575-.088.813-.436,1.326-.407" transform="translate(293.536 -108.911)" fill="#fff"/>
      <path id="Path_250" data-name="Path 250" d="M-293.084,121.232c3.209.207,6.882.072,9.984.1-2.337,1.163-7.065.48-10.19.51a.878.878,0,0,1,.206-.611" transform="translate(293.847 -108.801)" fill="#fff"/>
      <path id="Path_251" data-name="Path 251" d="M-283.12,135.575c.266.01.167.379.308.511a91.354,91.354,0,0,1-8.553,6c.04-1,1.05-1.469,1.73-1.933,2.13-1.468,4.484-2.944,6.515-4.582" transform="translate(293.658 -110.209)" fill="#fff"/>
      <path id="Path_252" data-name="Path 252" d="M-283.559,133.768c1.042.79-.8,1.534-1.53,2.031-1.773,1.228-4.127,3.1-5.6,3.873-.07-.409.1-.578.1-.919,2.36-1.64,4.755-3.256,7.029-4.985" transform="translate(293.594 -110.031)" fill="#fff"/>
      <path id="Path_253" data-name="Path 253" d="M-284.523,139.412a31.277,31.277,0,0,1,.61,4.99c-.886.024-.629-1.353-.71-2.137-.1-.915-.268-1.793-.307-2.549-.031-.166.1-.17.1-.3Z" transform="translate(293.027 -110.586)" fill="#fff"/>
      <path id="Path_254" data-name="Path 254" d="M-284.991,118.116c0,.238.175.3.1.611-1.727.876-2.487-2.643-.612-2.24a2.5,2.5,0,0,1,.3,1.117c-.269,0-.592-.051-.609.206-.063.442.477.27.818.307" transform="translate(293.19 -108.331)" fill="#fff"/>
      <path id="Path_255" data-name="Path 255" d="M-285.208,119.5c-.028.335.079.822-.1,1.013-.354-.02-.329-.414-.51-.609-.306-.1-.179.225-.2.4-.5-.138-.737-.556-.718-1.223.533.119.794.492,1.53.415" transform="translate(293.204 -108.589)" fill="#fff"/>
      <path id="Path_256" data-name="Path 256" d="M-286.43,140.091c.6,1.087.486,2.913.609,4.484-1.427-.271-4.692.063-6.107-.2.4-1.073,1.648-1.538,2.543-2.137,1.022-.693,2.037-1.386,2.955-2.142" transform="translate(293.714 -110.652)" fill="#fff"/>
      <path id="Path_257" data-name="Path 257" d="M-287.182,116.264c.432.06-.311.519-.308.813-.166.99.1,2.418-.3,3.159-.475-.628-.1-2.123-.1-2.951-.8.018-.5,2.011-.716,2.951h-.612c.117-1.893.384-3.624,2.04-3.972" transform="translate(293.448 -108.313)" fill="#fff"/>
      <path id="Path_258" data-name="Path 258" d="M-288.8,146.43c-.735.451-2.434.14-3.359.1-.063-1.732,3.037-.8,3.359-.1" transform="translate(293.736 -111.188)" fill="#fff"/>
      <path id="Path_259" data-name="Path 259" d="M-266.446,117.547a1.249,1.249,0,0,0-.614.2l-.043.024v.752l.159-.249c.161-.258.326-.4.462-.4.166,0,.311.226.359.56a1.275,1.275,0,0,1-.692,1.43l.03-.036-.133-.076c-.146-.083-.23-.139-.217-.3,0-.123.08-.154.267-.2a.573.573,0,0,0,.319-.154l.052-.061-.059-.055a.356.356,0,0,0-.248-.107.694.694,0,0,0-.39.184.991.991,0,0,1-.17.114l-.034.016-.012.038a.792.792,0,0,0,.115.655.307.307,0,0,0,.239.142.267.267,0,0,0,.206-.112l.011-.014.019.151h.036c.724,0,1.116-.74,1.116-1.435,0-.527-.242-1.059-.778-1.059" transform="translate(291.309 -108.439)" fill="#fff"/>
      <path id="Path_260" data-name="Path 260" d="M-265.983,110.921a2.886,2.886,0,0,0-2.732-2.984,4.076,4.076,0,0,0-1.851.507l.069.156a2.657,2.657,0,0,1,3.251.562,3.092,3.092,0,0,1,.611,1.909,2.519,2.519,0,0,1-2.424,2.77c-.049,0-.1,0-.147,0a1.459,1.459,0,0,1-1.308-1.3.614.614,0,0,1,.609-.671,1.659,1.659,0,0,1,.231-.018c.532,0,.642.331.784.749a1.522,1.522,0,0,0,.449.777l.091.07.042-.108a1.218,1.218,0,0,0-.133-1.16,1.692,1.692,0,0,0-1.364-.663,1.13,1.13,0,0,0-1.216,1.075,1.255,1.255,0,0,0,.329.992,2.438,2.438,0,0,0,1.734.637c.09,0,.181,0,.269-.013a2.951,2.951,0,0,0,2.7-3.283" transform="translate(291.661 -107.495)" fill="#fff"/>
      <path id="Path_261" data-name="Path 261" d="M-271.44,109.965l.015-.036a1.726,1.726,0,0,0,0-1.678,2.192,2.192,0,0,0-1.875-.8,2.731,2.731,0,0,0-2.2.935,1.536,1.536,0,0,0-.156,1.443.847.847,0,0,0,.9.572l.1,0,.04-.013a.66.66,0,0,0,.174-.721c-.09-.316-.34-.427-.58-.237l.077.148c.168-.047.215.15.216.263s-.045.26-.117.281a.836.836,0,0,1-.49-.954,2.294,2.294,0,0,1,2.111-1.278,1.864,1.864,0,0,1,.477.059,1.662,1.662,0,0,1,1.073,1.006.774.774,0,0,1-.159.744.341.341,0,0,1-.142-.174.654.654,0,0,1,.039-.5l.081-.17-.18.052a.462.462,0,0,0-.357.532.693.693,0,0,0,.678.584.785.785,0,0,0,.239-.04Z" transform="translate(292.127 -107.447)" fill="#fff"/>
      <path id="Path_262" data-name="Path 262" d="M-259.372,155h2.936l.1-.538h-2.125l1.259-1.1a1.91,1.91,0,0,0,.745-1.306A1.4,1.4,0,0,0-258,150.806c-1.437,0-1.951,1.407-.97,2.077l.28-.288a.848.848,0,0,1,.624-1.4.9.9,0,0,1,.97,1,1.544,1.544,0,0,1-.569,1.054l-1.706,1.528ZM-261,154.03a.821.821,0,0,1-.923.774.813.813,0,0,1-.9-.81,1.119,1.119,0,0,1,.7-1.007c.511.262,1.128.532,1.128,1.043m-.216-2.3a.965.965,0,0,1-.6.822c-.362-.188-.812-.448-.812-.822a.641.641,0,0,1,.7-.577.637.637,0,0,1,.708.577m.831,2.191c0-.652-.578-.96-1.119-1.221.439-.2.913-.484.913-.941,0-.532-.63-.95-1.332-.95a1.212,1.212,0,0,0-1.322,1.033c0,.43.419.738.809.979-.5.206-1.024.522-1.024,1.176,0,.605.717,1.164,1.538,1.164a1.4,1.4,0,0,0,1.539-1.24m-4.316.112a.821.821,0,0,1-.923.774.815.815,0,0,1-.9-.81,1.121,1.121,0,0,1,.7-1.007c.51.262,1.126.532,1.126,1.043m-.215-2.3a.964.964,0,0,1-.6.822c-.364-.188-.812-.448-.812-.822a.641.641,0,0,1,.7-.577.638.638,0,0,1,.709.577m.829,2.191c0-.652-.577-.96-1.117-1.221.438-.2.914-.484.914-.941,0-.532-.633-.95-1.334-.95a1.213,1.213,0,0,0-1.323,1.033c0,.43.418.738.811.979-.5.206-1.024.522-1.024,1.176,0,.605.717,1.164,1.537,1.164a1.4,1.4,0,0,0,1.538-1.24m-4.167,1.08V154.8c-.624,0-.746-.158-.746-1.09v-2.936l-1.546.308v.2c.671-.019.895.074.895,1.006v1.425c0,.932-.122,1.09-.746,1.09V155Zm-6.982-.342h-.112c-.626,0-.737-.15-.737-1.082v-.543h.056c.932,0,1.007.122,1.007.737h.187v-1.817h-.187c0,.625-.075.738-1.007.738h-.056V151.3h.625c.85,0,.97.168,1.073.6l.046.187h.2l-.073-1.118h-3.265v.186c.625,0,.736.149.736,1.082v1.491c0,.934-.111,1.091-.736,1.091V155H-274l.075-1.125h-.186l-.047.187c-.113.436-.233.6-1.082.6m-3.189.344v-1.622h-.186c-.178.868-.672,1.418-1.389,1.418-1.046,0-1.354-1.027-1.354-1.818s.308-1.819,1.354-1.819c.717,0,1.211.55,1.389,1.418h.186v-1.612h-.177a1.512,1.512,0,0,1-.169.455,1.683,1.683,0,0,0-1.229-.613,2.149,2.149,0,0,0-2.108,2.172A2.145,2.145,0,0,0-280,155.158a1.714,1.714,0,0,0,1.229-.615,1.27,1.27,0,0,1,.169.457Zm-8.365-2.769v1.491c0,.934-.111,1.091-.738,1.091V155h1.818v-.185c-.625,0-.737-.157-.737-1.091V151.9l2.714,3.253h.179v-2.917c0-.932.112-1.08.734-1.08v-.188h-1.817v.188c.625,0,.739.148.739,1.08v1.678l-2.483-2.946h-1.146v.188c.627,0,.738.148.738,1.08M-288.306,155v-.185c-.625,0-.736-.157-.736-1.091v-1.491c0-.932.111-1.08.736-1.08v-.188h-2.133v.188c.624,0,.734.148.734,1.08v1.491c0,.934-.11,1.091-.734,1.091V155Zm-2.889-1.116a1.192,1.192,0,0,0-.728-1.054l-.623-.327c-.571-.3-.812-.474-.812-.8,0-.344.308-.54.673-.54.67,0,.924.662.979,1.223h.187v-1.575h-.187a.522.522,0,0,1-.139.287,1.53,1.53,0,0,0-.886-.278,1.1,1.1,0,0,0-1.167,1.062,1.285,1.285,0,0,0,.774,1.136l.635.326c.5.252.765.5.765.831a.639.639,0,0,1-.717.625,1.238,1.238,0,0,1-1.278-1.24h-.187v1.6h.167a.747.747,0,0,1,.178-.344,1.93,1.93,0,0,0,1.045.344,1.272,1.272,0,0,0,1.323-1.276" transform="translate(293.908 -111.701)" fill="#fff"/>
    </g>
    <g id="Group_4209" data-name="Group 4209" transform="translate(1687.751 135.456)">
      <path id="Path_263" data-name="Path 263" d="M-311.622,191.095a6.7,6.7,0,0,0-.4-1.174,5.4,5.4,0,0,1-3.623,1.61,6.218,6.218,0,0,1-6.372-6.035,6.214,6.214,0,0,1,6.372-6,5.082,5.082,0,0,1,3.589,1.576,6.313,6.313,0,0,0,.436-1.141h.637v4.595h-.67c-.537-2.482-1.946-3.99-3.991-3.99-3.017,0-3.823,2.816-3.823,4.964s.805,4.962,3.823,4.962c2.045,0,3.455-1.509,3.991-3.991h.67v4.628Z" transform="translate(322.019 -179.491)" fill="#aa893b"/>
      <path id="Path_264" data-name="Path 264" d="M-300.645,182.878l-1.678,3.587h3.355Zm-2.683,5.7c-.638,1.342-.638,1.878,1.442,1.878v.638h-5.332v-.638c1.676,0,1.979-.436,2.816-2.282l4.093-8.685h.6l4.057,8.685c.839,1.811,1.174,2.282,2.683,2.282v.638h-6.472v-.638c1.912,0,2.112-.537,1.476-1.878l-.5-1.107h-4.359Z" transform="translate(320.566 -179.491)" fill="#aa893b"/>
      <path id="Path_265" data-name="Path 265" d="M-283.609,180.981h-1.376v4.46h1.376a2.046,2.046,0,0,0,2.178-2.213,2.056,2.056,0,0,0-2.178-2.247m-1.376,5.5v1.207c0,2.382.3,2.818,2.18,2.818v.638h-6.673v-.638c1.878,0,2.18-.436,2.18-2.818V183.4c0-2.381-.3-2.784-2.18-2.784v-.637h5.9c2.952,0,4.529,1.409,4.529,3.253,0,1.476-1.107,2.783-3.185,3.153l1.542,1.677c1.341,1.475,2.313,2.246,3.756,2.448v.638h-3.756l-3.724-4.662Z" transform="translate(318.824 -179.539)" fill="#aa893b"/>
      <path id="Path_266" data-name="Path 266" d="M-264.1,191.142V190.5c1.879,0,2.18-.436,2.18-2.815v-4.9l-4.091,8.786h-.571l-4.057-8.721v4.832c0,2.38.3,2.815,2.181,2.815v.638h-5.4V190.5c1.878,0,2.181-.436,2.181-2.815V183.4c0-2.382-.3-2.785-2.181-2.785v-.637h4.127l3.99,8.552,3.991-8.552h4.059v.637c-1.879,0-2.181.4-2.181,2.785v4.294c0,2.38.3,2.815,2.181,2.815v.638Z" transform="translate(317.29 -179.538)" fill="#aa893b"/>
      <path id="Path_267" data-name="Path 267" d="M-242.6,183.126h-.537l-.168-.638c-.3-1.106-.67-1.509-3.052-1.509h-1.845v3.756c2.617,0,2.817-.234,2.817-1.979h.637v5h-.637c0-1.744-.2-1.978-2.817-1.978v1.542c0,2.382.3,2.784,2.046,2.784h.47c2.381,0,2.75-.4,3.052-1.509l.168-.6h.5l-.2,3.154H-252.7V190.5c1.878,0,2.179-.436,2.179-2.817V183.4c0-2.383-.3-2.785-2.179-2.785v-.636h9.859Z" transform="translate(315.213 -179.539)" fill="#aa893b"/>
      <path id="Path_268" data-name="Path 268" d="M-230.986,190.1h1.173c2.414,0,2.783-.4,3.052-1.51l.167-.6h.538l-.235,3.153h-11.235v-.637c1.877,0,2.181-.436,2.181-2.818v-4.293c0-2.381-.3-2.784-2.181-2.784v-.637h6.673v.637c-1.878,0-2.18.4-2.18,2.784v3.924c0,2.382.3,2.785,2.046,2.785" transform="translate(313.723 -179.538)" fill="#aa893b"/>
      <path id="Path_269" data-name="Path 269" d="M-310.985,191.095v-4.628h-.671c-.536,2.482-1.944,3.991-3.991,3.991-3.019,0-3.824-2.815-3.824-4.962s.8-4.964,3.824-4.964c2.046,0,3.455,1.508,3.991,3.99h.671v-4.595h-.638a6.18,6.18,0,0,1-.436,1.141,5.078,5.078,0,0,0-3.588-1.576,6.214,6.214,0,0,0-6.372,6,6.218,6.218,0,0,0,6.372,6.035,5.4,5.4,0,0,0,3.623-1.61,6.635,6.635,0,0,1,.4,1.174Z" transform="translate(322.019 -179.491)" fill="#aa893b"/>
      <path id="Path_270" data-name="Path 270" d="M-264.1,191.142V190.5c1.878,0,2.18-.436,2.18-2.815v-4.9l-4.092,8.786h-.57l-4.059-8.721v4.832c0,2.38.3,2.815,2.182,2.815v.638h-5.4V190.5c1.879,0,2.181-.436,2.181-2.815V183.4c0-2.382-.3-2.785-2.181-2.785v-.637h4.125l3.992,8.552,3.991-8.552h4.059v.637c-1.879,0-2.181.4-2.181,2.785v4.294c0,2.38.3,2.815,2.181,2.815v.638Z" transform="translate(317.29 -179.538)" fill="#aa893b"/>
      <path id="Path_271" data-name="Path 271" d="M-242.84,179.974h-9.86v.639c1.878,0,2.181.4,2.181,2.783v4.293c0,2.382-.3,2.817-2.181,2.817v.638h10.531l.2-3.153h-.5l-.168.6c-.3,1.107-.671,1.51-3.053,1.51h-.468c-1.745,0-2.047-.4-2.047-2.783v-1.543c2.617,0,2.817.234,2.817,1.979h.638v-5h-.638c0,1.744-.2,1.978-2.817,1.978V180.98h1.845c2.381,0,2.75.4,3.052,1.511l.168.636h.537Z" transform="translate(315.213 -179.538)" fill="#aa893b"/>
      <path id="Path_272" data-name="Path 272" d="M-230.986,190.1h1.173c2.414,0,2.783-.4,3.052-1.51l.167-.6h.537l-.234,3.153h-11.235v-.637c1.877,0,2.181-.436,2.181-2.818v-4.293c0-2.381-.3-2.784-2.181-2.784v-.637h6.673v.637c-1.878,0-2.18.4-2.18,2.784v3.924c0,2.382.3,2.785,2.046,2.785" transform="translate(313.723 -179.538)" fill="#aa893b"/>
      <path id="Path_273" data-name="Path 273" d="M-319.236,202.622c1.8,0,2.622.862,2.622,2.751v2.75h-.862v-2.75c0-1.4-.54-2.016-1.759-2.016H-321.6v-.734Zm-1.439,2.448v3.053h-.862v-2.933Z" transform="translate(321.978 -181.762)" fill="#aa893b"/>
      <path id="Path_274" data-name="Path 274" d="M-309.333,205.244v2.879h-.861v-2.879c0-1.265-.541-1.888-1.723-1.888h-1.659v4.767h-.862v-5.5h2.521c1.759,0,2.585.815,2.585,2.622" transform="translate(321.275 -181.762)" fill="#aa893b"/>
      <path id="Path_275" data-name="Path 275" d="M-301.632,205.336c0,2.3-1.375,3.364-3.5,2.567l.193-.7c1.622.632,2.493-.129,2.493-1.87,0-1.247-.678-2.044-1.6-2.044-1.017,0-1.53,1-1.86,2.209l-.706,2.613h-.852l.706-2.576-.99-2.925h.852l.6,1.86a2.457,2.457,0,0,1,2.218-1.943,2.518,2.518,0,0,1,2.457,2.806" transform="translate(320.618 -181.753)" fill="#aa893b"/>
      <path id="Path_276" data-name="Path 276" d="M-293.47,202.622v2.493a2.9,2.9,0,0,1-3.136,3.117,2.894,2.894,0,0,1-3.135-3.117v-2.493h.861v2.512a2.163,2.163,0,0,0,2.273,2.365,2.162,2.162,0,0,0,2.273-2.365v-2.512Zm-2.7,3.153-.862.184v-3.337h.862Z" transform="translate(319.831 -181.762)" fill="#aa893b"/>
      <path id="Path_277" data-name="Path 277" d="M-283.932,202.522v.092l-2.108,5.408h-.907v-.036l1.879-4.73h-3.512v-1.65h.862v.916Z" transform="translate(318.736 -181.662)" fill="#aa893b"/>
      <path id="Path_278" data-name="Path 278" d="M-276.164,202.622v2.493a2.9,2.9,0,0,1-3.136,3.117,2.894,2.894,0,0,1-3.135-3.117v-2.493h.861v2.512A2.163,2.163,0,0,0-279.3,207.5a2.162,2.162,0,0,0,2.273-2.365v-2.512Zm-2.7,3.153-.862.184v-3.337h.862Z" transform="translate(318.132 -181.762)" fill="#aa893b"/>
      <path id="Path_279" data-name="Path 279" d="M-265.7,205.1v3.025h-5.188v-5.5h2.613c1.806,0,2.576.77,2.576,2.476m-.861,2.291v-2.227c0-1.237-.522-1.805-1.723-1.805h-1.741v4.033Z" transform="translate(316.998 -181.762)" fill="#aa893b"/>
      <path id="Path_280" data-name="Path 280" d="M-262.894,202.622v3.108l-.861.147v-3.255Z" transform="translate(316.298 -181.762)" fill="#aa893b"/>
      <path id="Path_281" data-name="Path 281" d="M-256.725,202.622v1.8c0,2.475-.964,3.932-4.96,4.107l-.065-.707a13.892,13.892,0,0,0,1.476-.173l-1.292-5.024h.888l1.229,4.822c1.421-.458,1.86-1.338,1.86-3.025v-1.8Z" transform="translate(316.101 -181.762)" fill="#aa893b"/>
      <path id="Path_282" data-name="Path 282" d="M-252.554,204.079v4.043h-.66l-.128-1.219-.028-.01a1.648,1.648,0,0,1-1.613,1.229h-.366v-.807h.366a1.562,1.562,0,0,0,1.6-1.641v-1.42c0-.6-.274-.9-.834-.9h-.605v-.733h.761a1.313,1.313,0,0,1,1.5,1.457" transform="translate(315.473 -181.762)" fill="#aa893b"/>
      <path id="Path_283" data-name="Path 283" d="M-246.51,208.114h-.834v-2.806c0-1.393-.7-2.071-1.833-2.071a3.522,3.522,0,0,0-1.686.468l-.294-.614a4.275,4.275,0,0,1,2.117-.55c1.476,0,2.53.825,2.53,2.732Z" transform="translate(315.061 -181.754)" fill="#aa893b"/>
      <path id="Path_284" data-name="Path 284" d="M-240.518,202.622v3.108l-.862.147v-3.255Z" transform="translate(314.101 -181.762)" fill="#aa893b"/>
      <path id="Path_285" data-name="Path 285" d="M-238.044,202.622v3.108l-.861.147v-3.255Z" transform="translate(313.858 -181.762)" fill="#aa893b"/>
      <path id="Path_286" data-name="Path 286" d="M-231.224,205.244v2.879h-.861v-2.879c0-1.265-.541-1.888-1.723-1.888h-1.659v4.767h-.862v-5.5h2.521c1.759,0,2.585.815,2.585,2.622" transform="translate(313.605 -181.762)" fill="#aa893b"/>
      <path id="Path_287" data-name="Path 287" d="M-225.223,202.522v.092l-2.108,5.408h-.907v-.036l1.878-4.73h-3.511v-1.65h.861v.916Z" transform="translate(312.971 -181.662)" fill="#aa893b"/>
    </g>
  </g>
</svg>
