<svg xmlns="http://www.w3.org/2000/svg" width="25.149" height="35.972" viewBox="0 0 25.149 35.972">
  <g id="Group_8628" data-name="Group 8628" transform="translate(-10578.75 -13456.75)">
    <path id="Path_25541" data-name="Path 25541" d="M8.957,35.472H.369A.37.37,0,0,1,0,35.1V14.135a4.511,4.511,0,0,1,1.8-3.924c.516-.453.889-.781.889-1.412V.369A.369.369,0,0,1,3.061,0h3.2a.37.37,0,0,1,.369.369V8.8c0,.631.373.958.889,1.412a4.511,4.511,0,0,1,1.8,3.924V35.1a.37.37,0,0,1-.37.369M.739,34.733H8.587v-20.6a3.834,3.834,0,0,0-1.551-3.369A2.516,2.516,0,0,1,5.9,8.8V.739H3.431V8.8A2.517,2.517,0,0,1,2.29,10.766,3.834,3.834,0,0,0,.739,14.135Z" transform="translate(10579 13457)" fill="#fff" stroke="#fff" stroke-width="0.5"/>
    <rect id="Rectangle_4451" data-name="Rectangle 4451" width="0.739" height="8.663" transform="translate(10580.848 13477.896)" fill="#fff" stroke="#fff" stroke-width="0.5"/>
    <rect id="Rectangle_4452" data-name="Rectangle 4452" width="4.311" height="0.71" transform="translate(10582.026 13464.39)" fill="#fff" stroke="#fff" stroke-width="0.5"/>
    <rect id="Rectangle_4453" data-name="Rectangle 4453" width="4.68" height="0.71" transform="translate(10580.953 13458.478)" fill="#fff" stroke="#fff" stroke-width="0.5"/>
    <path id="Path_25542" data-name="Path 25542" d="M39.93,55.21a.37.37,0,0,1-.369-.37v-8.6c0-.39-.772-.806-1.589-1.246-1.722-.927-4.08-2.2-4.08-5.294,0-2.25,1.757-7.9,1.831-8.141a.369.369,0,0,1,.353-.259h7.71a.369.369,0,0,1,.353.259c.075.239,1.831,5.891,1.831,8.141,0,3.1-2.359,4.367-4.08,5.294-.817.44-1.589.855-1.589,1.246v8.6a.37.37,0,0,1-.369.37M36.348,32.044C36,33.191,34.63,37.83,34.63,39.705c0,2.656,2.047,3.758,3.692,4.643A6.645,6.645,0,0,1,39.93,45.4a6.645,6.645,0,0,1,1.608-1.05c1.645-.886,3.692-1.988,3.692-4.643,0-1.876-1.37-6.514-1.718-7.661Z" transform="translate(10557.632 13437.263)" fill="#fff" stroke="#fff" stroke-width="0.5"/>
    <rect id="Rectangle_4454" data-name="Rectangle 4454" width="8.129" height="0.739" transform="translate(10593.497 13491.733)" fill="#fff" stroke="#fff" stroke-width="0.5"/>
    <path id="Path_25543" data-name="Path 25543" d="M36.42,52.465a2.837,2.837,0,0,1-.712-.089A2.768,2.768,0,0,1,33.988,51l.666-.32a2.012,2.012,0,0,0,1.25.98,3.829,3.829,0,0,0,3.03-.949c2.074-1.479,3.832-2.02,5.227-1.608A2.939,2.939,0,0,1,46,50.708l-.687.272a2.187,2.187,0,0,0-1.378-1.169c-1.148-.332-2.73.188-4.575,1.5a5.231,5.231,0,0,1-2.943,1.149" transform="translate(10557.57 13426.123)" fill="#fff" stroke="#fff" stroke-width="0.5"/>
  </g>
</svg>
