<svg xmlns="http://www.w3.org/2000/svg" width="32.807" height="32.81" viewBox="0 0 32.807 32.81">
  <g id="Group_8630" data-name="Group 8630" transform="translate(-10183.772 0.1)">
    <path id="Path_25544" data-name="Path 25544" d="M113.906,32.964l.156-.036a6.71,6.71,0,1,0-7.927-7.556l-.07.257a4.7,4.7,0,0,1-1.419,2.641,8.731,8.731,0,0,1-2.1,1.558,46.237,46.237,0,0,1-4.075-5.589,2.227,2.227,0,0,0-3.82,2.292,55.881,55.881,0,0,0,4.468,6.1A9.948,9.948,0,1,0,106.489,40a55.768,55.768,0,0,0,6.1,4.468,2.216,2.216,0,0,0,1.142.318,2.243,2.243,0,0,0,.544-.067,2.227,2.227,0,0,0,.606-4.071,46.126,46.126,0,0,1-5.566-4.056,8.741,8.741,0,0,1,1.556-2.1,4.99,4.99,0,0,1,3.038-1.528m.983,9.306a1.193,1.193,0,0,1-1.771,1.312,61.873,61.873,0,0,1-7.143-5.366.509.509,0,0,0-.125-.078.5.5,0,0,0-.538.072.4.4,0,0,0-.039.032l-.352.352-.338.338a3.092,3.092,0,0,1-1.473.824,3.139,3.139,0,0,1-1.1.062,3.109,3.109,0,0,1-1.822-5.284l.337-.338.352-.352c.012-.012.022-.026.032-.039a.527.527,0,0,0-.006-.664A61.783,61.783,0,0,1,95.535,26a1.192,1.192,0,1,1,2.045-1.227,46.177,46.177,0,0,0,3.973,5.491q.175.211.353.421t.355.415c.9,1.039,1.831,2.052,2.768,2.989s1.965,1.887,3.012,2.788c.138.119.276.237.415.354s.281.236.421.353a46.076,46.076,0,0,0,5.469,3.954,1.182,1.182,0,0,1,.543.733M90.512,48.6a8.914,8.914,0,0,1,8.95-14.811l-.009.009a4.119,4.119,0,0,0-1.08,1.893,6.853,6.853,0,0,0-1.558-.18A6.789,6.789,0,1,0,103.6,42.3a6.856,6.856,0,0,0-.18-1.558,4.119,4.119,0,0,0,1.893-1.08l.009-.009A8.912,8.912,0,0,1,90.512,48.6m12.054-6.3a5.754,5.754,0,1,1-5.751-5.751,5.8,5.8,0,0,1,1.427.177,4.138,4.138,0,0,0,4.147,4.147,5.8,5.8,0,0,1,.177,1.427m3.194-8.946c-.848-.848-1.7-1.771-2.532-2.725A9.808,9.808,0,0,0,105.377,29a5.694,5.694,0,0,0,1.685-3.1l.078-.285a.486.486,0,0,0,.014-.066,5.674,5.674,0,1,1,6.7,6.364l-.019,0-.164.038a5.989,5.989,0,0,0-3.538,1.8,9.818,9.818,0,0,0-1.629,2.148c-.961-.834-1.893-1.7-2.747-2.552" transform="translate(10097 -19.634)" fill="#aa893b" stroke="#aa893b" stroke-width="0.2"/>
    <path id="Path_25545" data-name="Path 25545" d="M139.811,27.035a2.776,2.776,0,0,1,2.251-1,2.8,2.8,0,0,1,.693.119.517.517,0,1,0,.3-.989,3.806,3.806,0,0,0-4.561,2.028.517.517,0,1,0,.938.437,2.758,2.758,0,0,1,.376-.594" transform="translate(10067.741 -22.676)" fill="#aa893b" stroke="#aa893b" stroke-width="0.2"/>
  </g>
</svg>
